<?xml version="1.0" encoding="UTF-8"?>
<svg xmlns="http://www.w3.org/2000/svg" xmlns:xlink="http://www.w3.org/1999/xlink" viewBox="0 0 100 100" width="100px" height="100px">
<g id="surface502168">
<path style=" stroke:none;fill-rule:nonzero;fill:rgb(18.039216%,80.000001%,44.313726%);fill-opacity:1;" d="M 72 4 C 64.921875 4 58.585938 7.109375 54.1875 12 L 12.6875 12 C 7.921875 12 4 15.921875 4 20.6875 L 4 86.4375 C 3.96875 86.648438 3.96875 86.851562 4 87.0625 L 4 87.3125 C 4 92.078125 7.921875 96 12.6875 96 L 79.3125 96 C 84.078125 96 88 92.078125 88 87.3125 L 88 87.125 C 88.03125 86.914062 88.03125 86.710938 88 86.5 L 88 46.875 C 92.210938 41.265625 96 35.789062 96 28 C 96 14.765625 85.234375 4 72 4 Z M 72 8 C 83.070312 8 92 16.929688 92 28 C 92 34.828125 88.617188 39.382812 84.1875 45.25 C 79.945312 50.867188 74.953125 57.648438 72 67.875 C 69.046875 57.648438 64.054688 50.867188 59.8125 45.25 C 58.164062 43.0625 56.617188 41.070312 55.375 39.0625 C 55.375 39.039062 55.375 39.023438 55.375 39 C 55.351562 38.960938 55.335938 38.914062 55.3125 38.875 C 55.226562 38.546875 55.054688 38.242188 54.8125 38 C 53.085938 34.960938 52 31.84375 52 28 C 52 16.929688 60.929688 8 72 8 Z M 12.6875 16 L 51.25 16 C 49.195312 19.53125 48 23.625 48 28 C 48 32.273438 49.15625 35.835938 50.875 39.125 L 8 81.9375 L 8 20.6875 C 8 18.085938 10.085938 16 12.6875 16 Z M 24.25 20 C 17.5 20 12 25.5 12 32.25 C 12 39 17.5 44.4375 24.25 44.4375 C 34.9375 44.4375 36.757812 34.828125 35.75 30.0625 L 24.25 30.0625 L 24.25 34.75 L 30.875 34.75 C 30.007812 37.578125 27.671875 39.625 24.25 39.625 C 20.179688 39.625 16.875 36.320312 16.875 32.25 C 16.875 28.179688 20.179688 24.875 24.25 24.875 C 26.078125 24.875 27.710938 25.523438 29 26.625 L 32.4375 23.1875 C 30.265625 21.210938 27.421875 20 24.25 20 Z M 72 20 C 67.601562 20 64 23.601562 64 28 C 64 32.398438 67.601562 36 72 36 C 76.398438 36 80 32.398438 80 28 C 80 23.601562 76.398438 20 72 20 Z M 72 24 C 74.234375 24 76 25.765625 76 28 C 76 30.234375 74.234375 32 72 32 C 69.765625 32 68 30.234375 68 28 C 68 25.765625 69.765625 24 72 24 Z M 53 42.625 C 54.125 44.320312 55.296875 46.015625 56.5625 47.6875 C 56.578125 47.710938 56.609375 47.726562 56.625 47.75 L 12.4375 91.9375 C 10.046875 91.804688 8.195312 89.953125 8.0625 87.5625 Z M 59 51 C 61.859375 54.90625 64.710938 59.242188 66.875 64.875 L 56 54 Z M 84 52.3125 L 84 81.9375 L 74.6875 72.6875 C 74.78125 72.523438 74.882812 72.335938 74.9375 72.1875 C 75.265625 71.320312 75.226562 70.75 75.375 70.1875 C 77.367188 62.53125 80.625 57.046875 84 52.3125 Z M 53.1875 56.8125 L 83.9375 87.5625 C 83.804688 89.953125 81.953125 91.804688 79.5625 91.9375 L 48.8125 61.1875 Z M 46 64 L 73.9375 92 L 18.0625 92 Z M 46 64 "/>
</g>
</svg>
